<?xml version="1.0" standalone="no"?>
<!DOCTYPE svg PUBLIC "-//W3C//DTD SVG 20010904//EN"
 "http://www.w3.org/TR/2001/REC-SVG-20010904/DTD/svg10.dtd">
<svg version="1.0" xmlns="http://www.w3.org/2000/svg"
 width="100.000000pt" height="100.000000pt" viewBox="0 0 100.000000 100.000000"
 preserveAspectRatio="xMidYMid meet">

<g transform="translate(0.000000,100.000000) scale(0.100000,-0.100000)"
fill="#000000" stroke="none">
<path d="M0 500 l0 -500 500 0 500 0 0 500 0 500 -500 0 -500 0 0 -500z m356
156 c6 -6 14 -46 18 -90 l6 -78 -24 6 c-14 3 -36 1 -50 -6 -41 -18 -76 3 -76
46 0 43 22 61 72 60 34 -1 39 1 36 20 -3 18 -10 21 -51 21 -36 0 -47 3 -45 15
6 28 87 33 114 6z m422 -4 c2 -7 -11 -10 -37 -9 -22 0 -43 -2 -47 -5 -13 -14
5 -36 34 -43 42 -9 66 -38 58 -70 -8 -33 -49 -50 -95 -38 -54 13 -50 32 6 30
41 -2 48 1 48 17 0 13 -10 23 -30 29 -43 14 -55 26 -55 57 0 30 14 45 45 52
27 6 68 -5 73 -20z m-338 -34 c20 -85 26 -87 41 -17 12 53 18 64 34 64 16 0
23 -12 36 -64 17 -71 21 -70 39 7 11 48 31 74 46 59 3 -3 -7 -44 -21 -92 -23
-75 -29 -86 -48 -83 -17 2 -24 15 -35 68 l-15 65 -17 -65 c-12 -51 -20 -66
-36 -68 -18 -3 -24 8 -42 72 -12 41 -25 82 -28 90 -4 11 0 16 14 16 16 0 23
-11 32 -52z m367 -215 c-4 -20 -14 -44 -23 -52 -15 -15 -16 -14 -9 9 15 50 12
55 -35 58 -57 4 -34 22 29 22 l44 0 -6 -37z m-545 2 c128 -60 304 -70 432 -26
68 24 69 24 61 11 -10 -16 -85 -52 -140 -66 -127 -34 -290 0 -388 82 -36 30
-32 30 35 -1z"/>
<path d="M271 556 c-14 -17 -4 -46 16 -46 26 0 53 20 53 40 0 15 -7 20 -29 20
-16 0 -34 -6 -40 -14z"/>
</g>
</svg>
